<?xml version="1.0" encoding="utf-8"?>
<!-- Generator: Adobe Illustrator 25.4.1, SVG Export Plug-In . SVG Version: 6.00 Build 0)  -->
<svg version="1.1" id="Layer_1" xmlns="http://www.w3.org/2000/svg" xmlns:xlink="http://www.w3.org/1999/xlink" x="0px" y="0px"
	 viewBox="0 0 500 500" style="enable-background:new 0 0 500 500;" xml:space="preserve">
<style type="text/css">
	.st0{fill:url(#Oval_18-2_00000112593668763338352990000007182700175415146633_);}
	.st1{fill:#231F20;}
	.st2{fill:#FFFFFF;}
	.st3{fill:#FFFFFF;stroke:#231F20;stroke-width:4;stroke-miterlimit:10;}
	.st4{fill:#282123;}
	.st5{fill:none;stroke:#282123;stroke-width:2.88;stroke-linecap:square;stroke-miterlimit:10;}
</style>
<g>
	<g id="Royal_Cat">
		<g>
			
				<radialGradient id="Oval_18-2_00000173132341688007322480000003614362981881119656_" cx="-938.6143" cy="3305.7515" r="0.663" gradientTransform="matrix(499 0 0 -499 468619 1649795.5)" gradientUnits="userSpaceOnUse">
				<stop  offset="0" style="stop-color:#58BA8C"/>
				<stop  offset="1" style="stop-color:#188250"/>
			</radialGradient>
			
				<circle id="Oval_18-2" style="fill:url(#Oval_18-2_00000173132341688007322480000003614362981881119656_);" cx="250.5" cy="250.5" r="249.5"/>
		</g>
		<g id="Group_22" transform="translate(94.337 95.588)">
			<g id="Head" transform="translate(8.334 7.46)">
				<g id="Ears" transform="translate(10.919 6.5)">
					<path id="Triangle_3" class="st1" d="M1.3,0.9l81.5,35.3l-66,31.6L1.3,0.9z"/>
				</g>
				<g id="Ears_2" transform="matrix(0.996, 0.087, -0.087, 0.996, 291, 9)">
					<path id="Triangle_3-2" class="st1" d="M-92.2,39.5L-26,77.5c0,0,5.7-23.3,12.2-37.9C-8.6,28-0.4,0.1-0.4,0.1L-92.2,39.5z"/>
				</g>
				<path id="Oval_5" class="st1" d="M283.1,142.9c0-64.4-63.2-116.7-141.2-116.7S0.7,78.5,0.7,142.9s63.2,149.9,141.2,149.9
					S283.1,207.3,283.1,142.9z"/>
				<g id="Oval_22-2">
					<path id="Oval_22-3" d="M237.7,213.5c0-11.1-26.5-30.5-37.5-61.9c-16.3-46.7-22.8-107.6-55.3-107.6
						c-29.9,0-38.5,54.5-58.1,97.7c-16.1,35.4-46.1,59.4-46.1,71.8c0,27.5,44.1,73.3,98.5,73.3S237.7,241,237.7,213.5z"/>
					<g transform="matrix(1, 0, 0, 1, -102.67, -103.05)">
						<path id="Oval_22-4" class="st2" d="M340.3,316.5c0-11.1-26.5-30.5-37.5-61.9C286.5,207.9,280,147,247.6,147
							c-29.9,0-38.5,54.5-58.1,97.7c-16.1,35.4-46.1,59.4-46.1,71.8c0,27.5,44.1,73.3,98.5,73.3S340.3,344,340.3,316.5z"/>
					</g>
				</g>
				<path id="nose" class="st1" d="M116.7,175.7c0,2,8.2,12.7,18,12.5c9.8-0.2,17.5-11.2,17.5-13.2c0-2-8-3.4-17.8-3.2
					S116.7,173.7,116.7,175.7z"/>
			</g>
			<path id="Oval_86" class="st1" d="M149.3,77.7c0.3-0.1-2.7,4.9-7.6-1.9c-2.1-2.9-8.4-12.9,0.6-22.5c1.3-1.4,6.2-3,15.2-4.4
				c5.2-0.8,36.4,1.9,64.5,36.2c1.6,2,7.2,15.6,9.1,17.4c6,5.5,7.4-5.6,5.3-10.3c-1.5-3.4-13-19-17.4-23.8
				c-8.1-8.7-24.9-18.7-34.8-23c-25.5-10.9-57.2-6.2-57.5-5.8c-0.3,0.2-28.4,6.4-33.1,13.6c-0.2,0.2-13.7,9.8-14.9,13.7
				c-1.2,3.9-5.3,40.7,10.7,29.3c20-14.3,14.2-23.4,18.2-20.5c10.6,12.3,18.8,11.6,19.3,12.1c1,1,8.2,3.3,14.4,2.9
				c5.7-0.3,10.5-3.2,10.9-3.1c0.4,0.1,7.8-3.4,11.2-10.3s3.6-7.8,2-13.5c-1.6-5.7-7.6-9-13.3-7.4c-5.7,1.6-9,7.6-7.4,13.3
				C145.4,72.5,149.3,77.7,149.3,77.7z"/>
			<g id="eyes" transform="translate(168.439 105)">
				<circle id="Oval_86-2" class="st3" cx="37.3" cy="36.5" r="36.5"/>
				<ellipse id="Oval_87" class="st1" cx="27.3" cy="41.3" rx="25.7" ry="28.5"/>
			</g>
			<path id="Oval_85" class="st4" d="M197.2,274.5c-13-4.1-40.8-23.2-52.4-39.6c-7.4,13.6-29.8,24.1-44.1,27.6
				c-13.1,3.1-27.6,9.5-45,1.8c-32.6-14.4-40.9-44.9-32.2-38.4c8.7,6.5,16.6,5.7,36.5-9.6c16.9-13.1,37.4-24.5,56.1-22.9
				c10.8,0.8,20.6,6.6,26.6,15.6c5.3-10.7,16.9-18.2,30.5-18.4c18.8-0.3,51.4,25,67.4,39.3c18.7,16.7,48,24,57.1,18.2
				c9.1-5.8-3.7,13.1-37.9,25.5c-9.3,3.4-25.5,4.5-39.7,4C210.6,277.1,202.2,276.1,197.2,274.5z"/>
			<path id="Line" class="st5" d="M127.1,245.5c-7.3-5.6,6.1,11.3,15.9,13.2c9.8,1.9,23.9-9.6,23.9-9.6S134.4,251.1,127.1,245.5z"/>
		</g>
	</g>
</g>
</svg>
